<svg width="293" height="49" viewBox="0 0 293 49" fill="none" xmlns="http://www.w3.org/2000/svg">
<path d="M32.2292 14.5949C31.1624 13.3774 29.1813 12.7687 26.4382 12.7687H18.8185C18.3613 12.7687 17.9041 13.2252 17.7517 13.6818L14.7039 33.6179C14.7039 34.0744 15.0086 34.3788 15.3134 34.3788H20.0377L21.2568 26.9218V27.2262C21.4092 26.7696 21.8664 26.3131 22.3236 26.3131H24.6095C29.0289 26.3131 32.3816 24.4868 33.4484 19.4648C33.4484 19.3126 33.4484 19.1604 33.4484 19.0082C33.296 19.0082 33.296 19.0082 33.4484 19.0082C33.6007 17.0298 33.296 15.8124 32.2292 14.5949Z" fill="#263B80"/>
<path d="M33.298 18.7419C33.298 18.8941 33.298 19.0463 33.298 19.1985C32.2312 24.3728 28.8786 26.0468 24.4591 26.0468H22.1732C21.716 26.0468 21.2589 26.5033 21.1065 26.9599L19.5825 36.2431C19.5825 36.5475 19.7349 36.8518 20.1921 36.8518H24.1543C24.6115 36.8518 25.0687 36.5475 25.0687 36.0909V35.9387L25.8307 31.221V30.9167C25.8307 30.4601 26.2879 30.1557 26.7451 30.1557H27.3546C31.1645 30.1557 34.2124 28.6339 34.9743 24.0684C35.2791 22.2422 35.1267 20.5682 34.2124 19.5029C34.06 19.1985 33.7552 18.8941 33.298 18.7419Z" fill="#139AD6"/>
<path d="M32.2309 18.5516C32.0785 18.5516 31.9261 18.3995 31.7737 18.3995C31.6214 18.3995 31.469 18.3995 31.3166 18.2473C30.707 18.0951 30.0974 18.0951 29.3354 18.0951H23.3921C23.2397 18.0951 23.0873 18.0951 22.9349 18.2473C22.6301 18.3995 22.4777 18.7038 22.4777 19.0082L21.2585 26.9218V27.2261C21.4109 26.7696 21.8681 26.313 22.3253 26.313H24.6112C29.0307 26.313 32.3833 24.4868 33.4501 19.4647C33.4501 19.3126 33.4501 19.1604 33.6025 19.0082C33.2977 18.856 33.1453 18.7038 32.8405 18.7038C32.3833 18.5516 32.3833 18.5516 32.2309 18.5516Z" fill="#232C65"/>
<path fill-rule="evenodd" clip-rule="evenodd" d="M87.9336 28.9959V24.7405V24.7396H90.209C91.1471 24.7402 91.9355 24.442 92.5742 23.845C93.2197 23.2784 93.5805 22.4637 93.5622 21.6145C93.575 20.7701 93.2147 19.9615 92.5742 19.3967C91.9411 18.7964 91.0896 18.4689 90.209 18.4869H86.5564V28.9959H87.9336ZM87.9336 23.4492V19.7807V19.7799H90.2432C90.758 19.7657 91.2542 19.9688 91.6059 20.3375C91.9597 20.6747 92.1594 21.1379 92.1594 21.6217C92.1594 22.1054 91.9597 22.5686 91.6059 22.9058C91.2499 23.2668 90.7552 23.4641 90.2432 23.4492H87.9336Z" fill="#5F6368"/>
<path fill-rule="evenodd" clip-rule="evenodd" d="M99.1129 22.4902C98.5306 21.9617 97.7363 21.6975 96.7301 21.6975C95.4375 21.6975 94.4614 22.1628 93.8018 23.0934L95.0009 23.8354C95.4439 23.2051 96.0457 22.8899 96.8062 22.8899C97.291 22.8843 97.7602 23.0584 98.1202 23.3776C98.4792 23.6692 98.6856 24.104 98.6825 24.5616V24.8674C98.1594 24.5766 97.4936 24.4312 96.6853 24.4312C95.7382 24.4323 94.9811 24.6506 94.414 25.0859C93.8469 25.5213 93.5634 26.1077 93.5634 26.845C93.551 27.5163 93.8474 28.1574 94.37 28.5899C94.9078 29.0552 95.5761 29.2878 96.3749 29.2878C97.3107 29.2878 98.0605 28.8807 98.6242 28.0664H98.6834V29.0552H99.9856V24.6638C99.9861 23.7432 99.6953 23.0187 99.1129 22.4902ZM95.4203 27.7465C95.1351 27.5445 94.9669 27.2195 94.9687 26.8741C94.9687 26.486 95.1539 26.1628 95.5268 25.8969C95.896 25.6349 96.3572 25.5039 96.9102 25.5039C97.6695 25.5039 98.2614 25.6701 98.6859 26.0024C98.6859 26.5641 98.4604 27.0535 98.0094 27.4707C97.6033 27.8699 97.0526 28.0946 96.4781 28.0955C96.0951 28.1025 95.7214 27.9792 95.4203 27.7465Z" fill="#5F6368"/>
<path d="M107.576 21.6975L103.002 32.2072H101.588L103.285 28.5299L100.277 21.6975H101.766L103.94 26.9375H103.97L106.084 21.6975H107.576Z" fill="#5F6368"/>
<path d="M82.6868 23.8378C82.6874 23.4229 82.6515 23.0088 82.5798 22.5999H76.7168V24.9447H80.0748C79.936 25.7015 79.4874 26.3699 78.8332 26.7949V28.317H80.8373C82.0107 27.2575 82.6868 25.6905 82.6868 23.8378Z" fill="#4285F4"/>
<path d="M76.7168 29.7875C78.3946 29.7875 79.8072 29.248 80.8373 28.3178L78.8332 26.7957C78.2754 27.1661 77.557 27.3775 76.7168 27.3775C75.0952 27.3775 73.7189 26.307 73.2267 24.8644H71.1621V26.433C72.2174 28.4895 74.3666 29.7874 76.7168 29.7875Z" fill="#34A853"/>
<path d="M73.2266 24.8644C72.9664 24.1085 72.9664 23.2899 73.2266 22.5339V20.9653H71.162C70.2793 22.6854 70.2793 24.713 71.162 26.433L73.2266 24.8644Z" fill="#FBBC04"/>
<path d="M76.7168 20.0207C77.6034 20.0065 78.4601 20.3346 79.1017 20.934L80.8762 19.1963C79.751 18.1613 78.2604 17.5931 76.7168 17.6108C74.3666 17.6109 72.2174 18.9088 71.1621 20.9653L73.2267 22.5339C73.7189 21.0913 75.0952 20.0207 76.7168 20.0207Z" fill="#EA4335"/>
<path d="M140.483 19.0514C140.879 18.5121 141.148 17.788 141.077 17.048C140.497 17.0794 139.789 17.4644 139.379 18.0041C139.011 18.4663 138.686 19.2208 138.77 19.9297C139.422 19.9912 140.072 19.5756 140.483 19.0514Z" fill="black"/>
<path d="M141.07 20.0682C140.124 20.0069 139.32 20.6522 138.868 20.6522C138.417 20.6522 137.725 20.0991 136.977 20.114C136.004 20.1295 135.1 20.7285 134.606 21.681C133.59 23.5867 134.338 26.4134 135.326 27.9654C135.806 28.7332 136.384 29.5787 137.146 29.5483C137.866 29.5176 138.148 29.041 139.024 29.041C139.898 29.041 140.152 29.5483 140.914 29.5329C141.705 29.5176 142.199 28.7647 142.679 27.9961C143.229 27.1208 143.454 26.2757 143.468 26.2293C143.454 26.2139 141.945 25.5837 141.931 23.6939C141.916 22.1116 143.116 21.3589 143.172 21.3122C142.495 20.222 141.436 20.0991 141.07 20.0682Z" fill="black"/>
<path fill-rule="evenodd" clip-rule="evenodd" d="M152.789 21.7128C152.789 19.4684 151.358 17.9268 149.303 17.9268V17.9268H145.332V29.4527H146.976V25.5149H149.251C151.329 25.5149 152.789 23.9653 152.789 21.7128ZM148.862 24.0132H146.976V19.4365H148.87C150.294 19.4365 151.108 20.2672 151.108 21.7208C151.108 23.1746 150.294 24.0132 148.862 24.0132Z" fill="black"/>
<path fill-rule="evenodd" clip-rule="evenodd" d="M156.089 24.5803C154.254 24.6921 153.219 25.5947 153.219 27.0645C153.219 28.574 154.276 29.5964 155.788 29.5964C156.801 29.5964 157.777 29.0054 158.225 28.0708H158.262V29.4526H159.781V23.6617C159.781 21.9764 158.585 20.8981 156.713 20.8981C154.804 20.8981 153.615 22.0163 153.527 23.534H155.025C155.164 22.7831 155.737 22.3039 156.654 22.3039C157.623 22.3039 158.203 22.863 158.203 23.7976V24.4445L156.089 24.5803ZM158.203 25.6427V26.3057C158.203 27.3999 157.337 28.2306 156.229 28.2306C155.377 28.2306 154.819 27.7513 154.819 27.0165C154.819 26.2977 155.355 25.8424 156.302 25.7704L158.203 25.6427Z" fill="black"/>
<path d="M161.216 32.5438V31.146C161.333 31.1779 161.597 31.1779 161.729 31.1779C162.463 31.1779 162.86 30.8425 163.102 29.9798C163.102 29.9638 163.241 29.4686 163.241 29.4606L160.452 21.0498H162.17L164.122 27.8871H164.151L166.104 21.0498H167.778L164.885 29.8919C164.225 31.9288 163.462 32.5837 161.861 32.5837C161.729 32.5837 161.333 32.5677 161.216 32.5438Z" fill="black"/>
<path d="M208.787 32.2313V23.3951C208.787 21.7693 210.105 20.4513 211.731 20.4513L214.34 20.4552C215.961 20.4584 217.274 21.7735 217.274 23.3947V25.2755C217.274 26.9013 215.956 28.2194 214.33 28.2194H210.643" stroke="#939598" stroke-width="0.251946" stroke-miterlimit="10" stroke-linecap="round" stroke-linejoin="round"/>
<path d="M218.003 20.4498H219.135C219.802 20.4498 220.343 20.9907 220.343 21.6579V28.2587" stroke="#939598" stroke-width="0.251946" stroke-miterlimit="10" stroke-linecap="round" stroke-linejoin="round"/>
<path d="M220.1 19.4263L219.586 18.9131C219.459 18.7858 219.459 18.5793 219.586 18.4519L220.099 17.939C220.227 17.8115 220.434 17.8115 220.561 17.939L221.074 18.4519C221.201 18.5793 221.201 18.7858 221.074 18.9131L220.561 19.4263C220.434 19.5537 220.227 19.5537 220.1 19.4263Z" fill="#32BCAD"/>
<path d="M222.514 20.4447H223.637C224.214 20.4447 224.768 20.6741 225.176 21.0823L227.801 23.7074C228.141 24.0476 228.693 24.0476 229.033 23.7074L231.648 21.0919C232.056 20.6837 232.61 20.4544 233.187 20.4544H234.1" stroke="#939598" stroke-width="0.251946" stroke-miterlimit="10" stroke-linecap="round" stroke-linejoin="round"/>
<path d="M222.514 28.2014H223.637C224.214 28.2014 224.768 27.9721 225.176 27.5638L227.801 24.9387C228.141 24.5986 228.693 24.5986 229.033 24.9387L231.648 27.5542C232.056 27.9624 232.61 28.1918 233.187 28.1918H234.1" stroke="#939598" stroke-width="0.251946" stroke-miterlimit="10" stroke-linecap="round" stroke-linejoin="round"/>
<path d="M202.097 29.8778C201.533 29.8778 201.003 29.6585 200.605 29.2603L198.452 27.1069C198.301 26.9553 198.037 26.9558 197.886 27.1069L195.725 29.2682C195.326 29.6663 194.797 29.8856 194.233 29.8856H193.809L196.536 32.613C197.388 33.4648 198.769 33.4648 199.621 32.613L202.356 29.8778H202.097Z" fill="#32BCAD"/>
<path d="M194.233 22.2607C194.796 22.2607 195.326 22.4801 195.724 22.8783L197.886 25.0399C198.041 25.1955 198.296 25.1962 198.452 25.0397L200.605 22.8861C201.003 22.4879 201.533 22.2686 202.096 22.2686H202.356L199.621 19.5335C198.769 18.6817 197.388 18.6817 196.536 19.5335L193.809 22.2607H194.233Z" fill="#32BCAD"/>
<path d="M204.618 24.5302L202.965 22.8773C202.929 22.8919 202.89 22.901 202.848 22.901H202.097C201.708 22.901 201.328 23.0586 201.053 23.3333L198.9 25.4867C198.698 25.6882 198.434 25.7891 198.169 25.7891C197.904 25.7891 197.64 25.6882 197.438 25.4869L195.277 23.3254C195.002 23.0507 194.622 22.8932 194.233 22.8932H193.309C193.27 22.8932 193.233 22.8839 193.198 22.8708L191.539 24.5302C190.687 25.3819 190.687 26.7629 191.539 27.6148L193.198 29.2742C193.233 29.2611 193.27 29.2518 193.309 29.2518H194.233C194.622 29.2518 195.002 29.0942 195.277 28.8195L197.438 26.6582C197.829 26.2679 198.51 26.2677 198.9 26.6584L201.053 28.8116C201.328 29.0864 201.708 29.2439 202.097 29.2439H202.848C202.89 29.2439 202.929 29.253 202.965 29.2676L204.618 27.6148C205.47 26.7629 205.47 25.3819 204.618 24.5302Z" fill="#32BCAD"/>
<path fill-rule="evenodd" clip-rule="evenodd" d="M265.5 20.8518H267.112V29.869H265.5V20.8518Z" fill="#111111"/>
<path fill-rule="evenodd" clip-rule="evenodd" d="M267.5 20.8889H268.5V29.8889H267.5V20.8889Z" fill="#111111"/>
<path fill-rule="evenodd" clip-rule="evenodd" d="M269.5 20.8518H271.917V29.869H269.5V20.8518Z" fill="#111111"/>
<path fill-rule="evenodd" clip-rule="evenodd" d="M272.5 20.8518H273.306V29.869H272.5V20.8518Z" fill="#111111"/>
<path fill-rule="evenodd" clip-rule="evenodd" d="M274.5 20.8889H275.306V29.9061H274.5V20.8889Z" fill="#111111"/>
<path fill-rule="evenodd" clip-rule="evenodd" d="M276.5 20.8518H278.112V29.869H276.5V20.8518Z" fill="#111111"/>
<path fill-rule="evenodd" clip-rule="evenodd" d="M278.5 20.8518H279.306V29.869H278.5V20.8518Z" fill="#111111"/>
<path d="M262.891 21.728C263.106 21.728 263.281 21.5547 263.281 21.341V17.6258H267.031C267.247 17.6258 267.422 17.4526 267.422 17.2388C267.422 17.025 267.247 16.8518 267.031 16.8518H262.891C262.675 16.8518 262.5 17.025 262.5 17.2388V21.341C262.5 21.5547 262.675 21.728 262.891 21.728Z" fill="#111111"/>
<path d="M267.422 33.3069C267.422 33.0932 267.247 32.9199 267.031 32.9199H263.281V29.2047C263.281 28.991 263.106 28.8177 262.891 28.8177C262.675 28.8177 262.5 28.991 262.5 29.2047V33.3069C262.5 33.5207 262.675 33.6939 262.891 33.6939H267.031C267.247 33.6939 267.422 33.5207 267.422 33.3069Z" fill="#111111"/>
<path d="M282.108 28.8177C281.892 28.8177 281.717 28.991 281.717 29.2047V32.9199H277.968C277.752 32.9199 277.577 33.0932 277.577 33.3069C277.577 33.5207 277.752 33.6939 277.968 33.6939H282.108C282.324 33.6939 282.499 33.5207 282.499 33.3069V29.2047C282.499 28.991 282.324 28.8177 282.108 28.8177Z" fill="#111111"/>
<path d="M282.108 16.8518H277.968C277.752 16.8518 277.577 17.025 277.577 17.2388C277.577 17.4526 277.752 17.6258 277.968 17.6258H281.717V21.341C281.717 21.5547 281.892 21.728 282.108 21.728C282.324 21.728 282.499 21.5547 282.499 21.341V17.2388C282.499 17.025 282.324 16.8518 282.108 16.8518Z" fill="#111111"/>
</svg>
